<svg xmlns="http://www.w3.org/2000/svg" viewBox="0 0 517.69 131.17">
  <g id="Capa_2" data-name="Capa 2">
    <g id="Capa_2-2" data-name="Capa 2">
      <path d="M224.1,94a4.63,4.63,0,0,0-4.1-2.4q-3,0-5.4,3-7,9-12.3,12.8t-13.5,3.8q-11.4,0-16.2-9.2,23.79-5.81,33.7-15.7a32.34,32.34,0,0,0,9.9-23.7q0-11.8-7-18.7T190.6,37a40.44,40.44,0,0,0-23.3,7,47.46,47.46,0,0,0-16.1,18.9,57.82,57.82,0,0,0-5.8,25.7,61.87,61.87,0,0,0,.57,8.57c-2.72,3-5.08,5.36-7.07,7.13q-5.51,4.91-9.5,4.9-5.81,0-5.8-8,0-5.6,3.8-23,4.4-20.4,4.4-28.2,0-13-13-13Q108.2,37,96,48.17T73.8,84q.6-3.6,2.2-10.8,3.8-16.8,3.8-23.2,0-6.6-2.9-9.8T67,37q-7,0-14.9,5.3T36.7,58.37a108.22,108.22,0,0,0-12.9,26.4,137.5,137.5,0,0,1,2-14.7Q27,64.18,29,56.17q3-11.2,3-14.4c0-1.87-.53-3.13-1.6-3.8s-2.93-1-5.6-1q-7.39,0-11.5,2.7a15,15,0,0,0-5.9,8.5A163,163,0,0,0,0,97.57q0,17.6,3.1,25.6t10.7,8q6.19,0,9.1-3.3t5.1-12.7a176.1,176.1,0,0,1,6.9-22,103.22,103.22,0,0,1,8.9-18.4q4.61-7.2,7.6-7.2c1.47,0,2.2,1.07,2.2,3.2q0,4-1.6,16.8a173.67,173.67,0,0,0-2,22,32.63,32.63,0,0,0,3.3,15.3q3.3,6.3,9.9,6.3,6.4,0,9.3-3.2t5.1-12.8A143.66,143.66,0,0,1,85.4,92,98.51,98.51,0,0,1,95,74.27q4.8-6.7,7.4-6.7c1.47,0,2.2,1.07,2.2,3.2q0,4.8-2.6,17.4-2.81,14.4-2.8,20,0,11.2,5.2,17.1t15.4,5.9a38.82,38.82,0,0,0,22.5-6.8,81,81,0,0,0,10.53-8.68,34.58,34.58,0,0,0,3.17,4q10.59,11.51,29.8,11.5,12.6,0,21.7-4.8A39.06,39.06,0,0,0,222.2,113a22.21,22.21,0,0,0,3.4-12.4A12.41,12.41,0,0,0,224.1,94Zm-54.5-8q0-12.19,5.1-20.8t12.5-8.6a7.35,7.35,0,0,1,5.7,2.3A8.7,8.7,0,0,1,195,65q0,7.4-6.8,13t-18.6,8.4Z" style="fill: #3f90ff" />
      <path d="M274.47,106.91a13.3,13.3,0,0,0,2.75.56c.92.08,1.83.13,2.75.13a23.49,23.49,0,0,0,6.62-.94,24,24,0,0,0,6-2.68,22.43,22.43,0,0,0,8.56-9.84l17.2,17.12a46.1,46.1,0,0,1-7.53,8.25,46.7,46.7,0,0,1-19.6,10.09A47.72,47.72,0,0,1,280,130.92a47,47,0,0,1-18.28-3.57,46.43,46.43,0,0,1-15-10,46.91,46.91,0,0,1-10.11-15.2,49.64,49.64,0,0,1-3.69-19.37,51.28,51.28,0,0,1,3.69-19.75,44.89,44.89,0,0,1,25.07-25A47.9,47.9,0,0,1,280,34.55a46.67,46.67,0,0,1,11.27,1.36,47.91,47.91,0,0,1,10.45,3.92,47.42,47.42,0,0,1,9.24,6.26,45.85,45.85,0,0,1,7.57,8.3Zm12-47.93a13.86,13.86,0,0,0-3.23-.76,29.43,29.43,0,0,0-3.31-.17,23.74,23.74,0,0,0-9.07,1.74,21.76,21.76,0,0,0-7.4,5,23.51,23.51,0,0,0-4.94,7.79,27.54,27.54,0,0,0-1.81,10.26c0,.85,0,1.82.13,2.9a31.53,31.53,0,0,0,.43,3.27c.2,1.11.44,2.17.73,3.2a11.81,11.81,0,0,0,1.12,2.72Z" style="fill: #f0f0f0" />
      <path d="M517.61,38H494.13v50.4a19,19,0,0,1-1.38,7.11,21,21,0,0,1-3.78,6.17,19.13,19.13,0,0,1-5.64,4.39,14.75,14.75,0,0,1-6.83,1.66,18.68,18.68,0,0,1-6.93-1.28,15.9,15.9,0,0,1-5.63-3.75,17.93,17.93,0,0,1-3.83-6.08,22.56,22.56,0,0,1-1.42-8.22V38H435.3v50.4a46.24,46.24,0,0,0,3.23,17.67,39.1,39.1,0,0,0,8.85,13.36,39.5,39.5,0,0,0,13.12,8.47,42.78,42.78,0,0,0,16,3,29.59,29.59,0,0,0,7.61-1,41.62,41.62,0,0,0,7.27-2.64,45.52,45.52,0,0,0,6.75-3.91,63.66,63.66,0,0,0,5.42-4.27A8,8,0,0,0,517.69,114Z" style="fill: #f0f0f0" />
      <path d="M418.69,12a12,12,0,0,0-24,0L395,44.34a17.8,17.8,0,0,0-4.64-4.6,27.54,27.54,0,0,0-5.89-3A34.33,34.33,0,0,0,378,35.06a42.19,42.19,0,0,0-6.41-.51,46,46,0,0,0-18.28,3.66,46.74,46.74,0,0,0-15,10.13,47.54,47.54,0,0,0-10.11,15.33,49.07,49.07,0,0,0-3.7,19.15,49,49,0,0,0,3.7,19.2,47.25,47.25,0,0,0,10.11,15.24,46.63,46.63,0,0,0,33.24,13.66,35.86,35.86,0,0,0,8.81-1.1,48.75,48.75,0,0,0,8.48-3,52.5,52.5,0,0,0,7.87-4.51c2-1.37,3.85-2.85,5.67-4.39a8.5,8.5,0,0,0,16.29-3.39c0-.16,0-.33,0-.49h0ZM393.11,92.06a26.5,26.5,0,0,1-5,7.92,25.08,25.08,0,0,1-7.44,5.53,20.36,20.36,0,0,1-9.07,2.09,21.5,21.5,0,0,1-9.07-2,23.12,23.12,0,0,1-7.4-5.37,25.69,25.69,0,0,1-6.75-17.45,28.25,28.25,0,0,1,1.8-10.38,22.75,22.75,0,0,1,5-7.79,21.41,21.41,0,0,1,7.4-4.9,24.26,24.26,0,0,1,9.07-1.7,20.35,20.35,0,0,1,9.07,2.08,25,25,0,0,1,7.44,5.54,26.46,26.46,0,0,1,5,7.91,24,24,0,0,1,0,18.48Z" style="fill: #f0f0f0" />
    </g>
  </g>
</svg>