<svg xmlns="http://www.w3.org/2000/svg" viewBox="0 0 394.56 475.09">
  <title>Recurso 1</title>
  <g id="Capa_2" data-name="Capa 2">
    <g id="Capa_1-2" data-name="Capa 1">
      <g>
        <path d="M73.66,269.8a133,133,0,0,1-4.29-32.26V201A17.53,17.53,0,0,0,64,188.15a17.92,17.92,0,0,0-25.7,0A17.57,17.57,0,0,0,32.83,201v36.55a160.32,160.32,0,0,0,12,61.11Z" style="fill: #fff"/>
        <path d="M197.28,328.9q37.69,0,64.52-26.83t26.84-64.53V201L391.71,97.93a9,9,0,0,0,0-13.14L368.3,61.38a9,9,0,0,0-13.13,0L2.85,413.7a9,9,0,0,0,0,13.13l23.41,23.41a9,9,0,0,0,13.14,0l72.52-72.52A156.84,156.84,0,0,0,179,400.85v37.69H105.92a18.28,18.28,0,0,0,0,36.55H288.64a18.28,18.28,0,0,0,0-36.55H215.55V400.85Q277.5,394,319.62,347.32t42.11-109.77V201a18.28,18.28,0,0,0-36.55,0v36.55q0,52.83-37.54,90.36t-90.36,37.54a123.86,123.86,0,0,1-58.53-14.56l27.41-27.4A93.08,93.08,0,0,0,197.28,328.9Z" style="fill: #fff"/>
        <path d="M250,16.85A88.46,88.46,0,0,0,197.28,0q-37.69,0-64.52,26.84T105.92,91.37V237.54l177.3-177.3A90.64,90.64,0,0,0,250,16.85Z" style="fill: #fff"/>
      </g>
    </g>
  </g>
</svg>
