<svg xmlns="http://www.w3.org/2000/svg" viewBox="0 0 467.97 274.94">
  <title>Recurso 1</title>
  <g id="Capa_2" data-name="Capa 2">
    <g id="Capa_1-2" data-name="Capa 1">
      <path d="M264.7,0H51.2A51.35,51.35,0,0,0,0,51.2V223.74a51.35,51.35,0,0,0,51.2,51.2H264.7a51.35,51.35,0,0,0,51.2-51.2V51.2A51,51,0,0,0,264.7,0Z" style="fill: #fff"/>
      <path d="M430.08,28.16a26.15,26.15,0,0,0-8.7,3.58L341.5,77.82V196.61l80.39,46.08c14.85,8.7,33.28,3.58,42-11.27a31.24,31.24,0,0,0,4.1-15.36V57.86A30.81,30.81,0,0,0,430.08,28.16Z" style="fill: #fff"/>
    </g>
  </g>
</svg>
