<svg xmlns="http://www.w3.org/2000/svg" viewBox="0 0 467.99 434.92">
  <title>Recurso 1</title>
  <g id="Capa_2" data-name="Capa 2">
    <g id="Capa_1-2" data-name="Capa 1">
      <g>
        <path d="M436.9,106.66a30.74,30.74,0,0,0-6.82.83,26.21,26.21,0,0,0-8.7,3.58L341.5,157.15V275.94L421.89,322c14.85,8.7,33.28,3.58,42-11.27a31.22,31.22,0,0,0,4.1-15.36V137.19A30.81,30.81,0,0,0,436.9,106.66Z" style="fill: #fff"/>
        <path d="M200.76,79.33H41.9c-23,0-41.9,23-41.9,51.2V303.07c0,28.16,4.82,40.12,22.76,49.34Z" style="fill: #fff"/>
        <path d="M264.7,354.27a51.35,51.35,0,0,0,51.2-51.2V130.53a51,51,0,0,0-31.66-47.37L104,354.27Z" style="fill: #fff"/>
        <path d="M321.46,20.44C321.46,9.15,312.57,0,301.6,0a19.85,19.85,0,0,0-18.08,12L238.76,79.33,55.91,354.27,22.76,404.13l.11.07a20.72,20.72,0,0,0-2.72,10.28c0,11.29,8.89,20.44,19.86,20.44A19.79,19.79,0,0,0,57.58,424L104,354.27h0L284.24,83.16,316.9,33.47A20.71,20.71,0,0,0,321.46,20.44Z" style="fill: #fff"/>
      </g>
    </g>
  </g>
</svg>
