<svg xmlns="http://www.w3.org/2000/svg" viewBox="0 0 467.97 434.93">
  <title>Recurso 2</title>
  <g id="Capa_2" data-name="Capa 2">
    <g id="Capa_1-2" data-name="Capa 1">
      <path d="M430.08,107.49a26.15,26.15,0,0,0-8.7,3.58L341.5,157.15V275.94L421.89,322c14.85,8.7,33.28,3.58,42-11.27a31.24,31.24,0,0,0,4.1-15.36V137.19A30.81,30.81,0,0,0,430.08,107.49Z"/>
      <g>
        <path d="M41.9,79.33c-23,0-41.9,23-41.9,51.2V303.07c0,28.16,4.82,40.12,22.76,49.34h0l178-273.08Z"/>
        <path d="M284.24,83.16,104,354.27H264.7a51.35,51.35,0,0,0,51.2-51.2V130.53A51,51,0,0,0,284.24,83.16Z"/>
        <polygon points="22.76 404.13 56.74 425.26 103.95 354.27 55.91 354.27 22.76 404.13"/>
        <path d="M284.24,83.16l34.14-51.94L284.24,10.93l-45.48,68.4H264.7A51.44,51.44,0,0,1,284.24,83.16Z"/>
        <path d="M264.7,79.33H238.76L55.91,354.27h48L284.24,83.16A51.44,51.44,0,0,0,264.7,79.33Z"/>
      </g>
      <ellipse cx="301.6" cy="20.44" rx="19.86" ry="20.44"/>
      <ellipse cx="40.01" cy="414.48" rx="19.86" ry="20.44"/>
    </g>
  </g>
</svg>
